<?xml version="1.0" encoding="utf-8"?>
<!-- Generator: Adobe Illustrator 19.2.0, SVG Export Plug-In . SVG Version: 6.00 Build 0)  -->
<svg version="1.1" id="Слой_1" xmlns="http://www.w3.org/2000/svg" xmlns:xlink="http://www.w3.org/1999/xlink" x="0px" y="0px"
	 viewBox="0 0 84 84" style="enable-background:new 0 0 84 84;" xml:space="preserve">
<style type="text/css">
	.st0{fill:#AA6C09;}
</style>
<g>
	<rect y="10.1" class="st0" width="19.1" height="2.4"/>
	<rect x="64.9" y="10.1" class="st0" width="19.1" height="2.4"/>
	<path class="st0" d="M20.7,52.7L4.8,11.3l-2.1,0.9l16.2,42.2l0.6,1.5C19.6,55.5,20.6,53.2,20.7,52.7z"/>
	<polygon class="st0" points="24.7,37.8 14.9,12.2 16.4,11.5 17,11.3 26.8,36.9 	"/>
	<polygon class="st0" points="20.3,53.8 26.8,36.9 24.7,36 18.3,52.8 	"/>
	<path class="st0" d="M21.3,38.7l-11-28.6L8.3,11l11.2,29.4l0.6,1.5C20.2,41.5,21.2,39.1,21.3,38.7z"/>
	<rect x="23.1" y="10.1" class="st0" width="19.1" height="2.4"/>
	<path class="st0" d="M43.3,52.7L27.3,11.3l-2.1,0.9l16.2,42.2l0.6,1.5C42.2,55.5,43.1,53.2,43.3,52.7z"/>
	<polygon class="st0" points="47.3,37.8 37.5,12.2 39,11.5 39.5,11.3 49.3,36.9 	"/>
	<polygon class="st0" points="42.9,53.8 49.3,36.9 47.3,36 40.8,52.8 	"/>
	<path class="st0" d="M43.9,38.7l-11-28.6L30.8,11L42,40.4l0.6,1.5C42.8,41.5,43.7,39.1,43.9,38.7z"/>
	
		<rect x="45.3" y="69.6" transform="matrix(-1 -5.530744e-11 5.530744e-11 -1 107.4219 141.5996)" class="st0" width="16.8" height="2.4"/>
	<polygon class="st0" points="46.7,61.9 49.9,70.3 48.4,71 47.9,71.3 44.7,62.8 	"/>
	<polygon class="st0" points="51.1,45.9 44.7,62.8 46.7,63.7 53.2,46.9 	"/>
	<path class="st0" d="M49.4,52.6c-0.4,1-0.9,2-1.3,2.9L54.4,72l2.1-0.9L49.4,52.6z"/>
	<polygon class="st0" points="57.9,71.1 80.6,11.7 78.6,10.8 55.8,70.2 	"/>
	<path class="st0" d="M50.7,47l7.4,19.2l2.1-0.9l-7.6-19.9L52,43.8C51.8,44.2,50.9,46.5,50.7,47z"/>
	<path class="st0" d="M56.2,56.3l17.7-46.2L76,11L58,57.9l-0.6,1.5C57.3,59.1,56.4,56.7,56.2,56.3z"/>
	<polygon class="st0" points="54.3,66.1 56.8,59.6 55.3,57.3 52.2,65.2 	"/>
	
		<rect x="22.4" y="69.6" transform="matrix(-1 -5.519863e-11 5.519863e-11 -1 61.6046 141.5996)" class="st0" width="16.8" height="2.4"/>
	<polygon class="st0" points="24.2,61.9 27.4,70.3 25.9,71 25.3,71.3 22.1,62.8 	"/>
	<polygon class="st0" points="28.6,45.9 22.1,62.8 24.2,63.7 30.6,46.9 	"/>
	<path class="st0" d="M26.8,52.6c-0.4,1-0.9,2-1.3,2.9L31.8,72l2.1-0.9L26.8,52.6z"/>
	<polygon class="st0" points="35.4,71.1 37.6,65.2 35.6,64.3 33.3,70.2 	"/>
	<path class="st0" d="M28.2,47l7.4,19.2l2.1-0.9L30,45.3l-0.6-1.5C29.3,44.2,28.3,46.5,28.2,47z"/>
	<polygon class="st0" points="31.8,66.1 34.3,59.6 32.7,57.3 29.7,65.2 	"/>
	<path class="st0" d="M58.7,36.9L69,10.1l2.1,0.9L60.5,38.6l-0.6,1.5C59.8,39.7,58.9,37.3,58.7,36.9z"/>
</g>
</svg>
