<?xml version="1.0" encoding="utf-8"?>
<!-- Generator: Adobe Illustrator 19.2.0, SVG Export Plug-In . SVG Version: 6.00 Build 0)  -->
<svg version="1.1" id="Слой_1" xmlns="http://www.w3.org/2000/svg" xmlns:xlink="http://www.w3.org/1999/xlink" x="0px" y="0px"
	 viewBox="0 0 275 40" style="enable-background:new 0 0 275 40;" xml:space="preserve">
<style type="text/css">
	.st0{fill:#262626;}
</style>
<g>
	<path class="st0" d="M38.8,0.4L28.8,40h-5.8l-3.8-13.1L15.5,40H9.7L0,0.4h6.6l6.2,25.9l3.6-12.7h5.8l3.8,12.5L32,0.4L38.8,0.4z"/>
	<path class="st0" d="M69,40h-6.8L59.5,31H48.5l-3,8.9h-6.8l3-8.9H40l-3.8-6.6h7.6l7.4-23.7h5.8L69,40z M57.5,24.3l-3.6-11.1
		l-3.6,11.1H57.5z"/>
	<path class="st0" d="M104.6,40h-7.6l-8.8-15.1L79.6,40H72l12.5-21.7c-1.2-2.2-3.2-5.6-6-10.3s-4.2-7.4-4.4-7.6h7.6l6.8,11.5
		c0.6-0.8,1.6-2.6,3.2-5.4c1.6-2.8,2.8-4.8,3.6-6.2h7.6L92.3,18.3L104.6,40z"/>
	<path class="st0" d="M138.6,40h-6.8l-2.8-8.9h-10.9l-3,8.9h-6.8l3-8.9h-1.8l-3.8-6.6h7.6l7.4-23.7h5.8L138.6,40z M127.1,24.3
		l-3.6-11.1l-3.6,11.1H127.1z"/>
	<path class="st0" d="M177.1,26.8c0,3.6-1.4,6.6-4.2,9.1c-2.8,2.6-6.2,4-9.9,4v-6.6c2.2,0,4-0.6,5.6-2c1.6-1.4,2.2-2.8,2.2-4.6
		c0-1-0.4-1.8-1-2.8c-0.8-1-1.6-1.8-2.6-2.8c-1-1-2-2-3-3c-1-1-1.8-2.2-2.6-3.6c-0.8-1.4-1-2.8-1-4.4c0-2.8,1.2-5.2,3.4-7.2
		c2.2-2,5-3,8-3v6.6c-1.4,0-2.6,0.4-3.4,1c-1,0.8-1.4,1.6-1.4,2.6c0,0.8,0.4,1.8,1,2.6c0.8,0.8,1.6,1.8,2.6,2.6c1,0.8,2,1.8,3,2.8
		c1,1,1.8,2.2,2.6,3.6C176.8,23.5,177.1,25.1,177.1,26.8z"/>
	<path class="st0" d="M207,39.8h-6.6V15.3h-9.5v24.5h-6.6V15.3h-2.6l-3.8-6.6h6.4V0h6.6v8.8h9.5V0h6.6L207,39.8z"/>
	<path class="st0" d="M250.9,20.1c0,5.4-2,10.1-5.8,13.9c-3.8,3.8-8.6,5.8-13.9,5.8s-10.1-2-13.9-5.8c-3.8-4-5.8-8.6-5.8-13.9
		s2-9.9,5.8-13.9c4-4,8.6-5.8,13.9-5.8s9.9,2,13.9,5.8C248.9,10.1,250.9,14.7,250.9,20.1z M240.6,29.4c2.6-2.6,4-5.8,4-9.3
		c0-3.6-1.4-6.8-4-9.3s-5.8-4-9.3-4s-6.8,1.4-9.3,4c-2.6,2.6-4,5.8-4,9.3s1.4,6.8,4,9.3c2.6,2.6,5.8,4,9.3,4
		C234.8,33.4,238,32,240.6,29.4z"/>
	<path class="st0" d="M275,15.7c0,3.8-1.2,7.2-3.8,10.1c-2.6,3-5.8,4.6-9.3,5.2V40h-6.6V0.4h4.2c4.2,0,7.8,1.6,10.9,4.6
		C273.4,8,275,11.5,275,15.7z M268.6,15.7c0-2.2-0.6-4-2-5.6c-1.2-1.6-3-2.6-5-3.2v17.3c2-0.4,3.6-1.6,4.8-3.2
		C268,19.7,268.6,17.7,268.6,15.7z"/>
</g>
</svg>
