<?xml version="1.0"?>
<svg xmlns="http://www.w3.org/2000/svg" xmlns:xlink="http://www.w3.org/1999/xlink" xmlns:svgjs="http://svgjs.com/svgjs" version="1.1" width="512" height="512" x="0" y="0" viewBox="0 0 461.14 461.14" style="enable-background:new 0 0 512 512" xml:space="preserve" class=""><g>
<g xmlns="http://www.w3.org/2000/svg">
	<path d="M418.201,51.447h-39.342V12.105C378.859,5.42,373.433,0,366.754,0H42.938c-6.682,0-12.105,5.42-12.105,12.105V115   c0,6.679,5.423,12.105,12.105,12.105h323.815c6.679,0,12.105-5.426,12.105-12.105V75.657h27.236v124.079h-201.25   c-6.682,0-12.105,5.42-12.105,12.105v36.315h-22.697c-5.012,0-9.079,4.061-9.079,9.079v194.824c0,5.019,4.066,9.079,9.079,9.079   h69.605c5.013,0,9.079-4.061,9.079-9.079V257.236c0-5.019-4.066-9.079-9.079-9.079h-22.697v-24.21h201.25   c6.679,0,12.105-5.426,12.105-12.105V63.552C430.307,56.867,424.88,51.447,418.201,51.447z" fill="#ffffff" data-original="#000000" style="" class=""/>
</g>
<g xmlns="http://www.w3.org/2000/svg">
</g>
<g xmlns="http://www.w3.org/2000/svg">
</g>
<g xmlns="http://www.w3.org/2000/svg">
</g>
<g xmlns="http://www.w3.org/2000/svg">
</g>
<g xmlns="http://www.w3.org/2000/svg">
</g>
<g xmlns="http://www.w3.org/2000/svg">
</g>
<g xmlns="http://www.w3.org/2000/svg">
</g>
<g xmlns="http://www.w3.org/2000/svg">
</g>
<g xmlns="http://www.w3.org/2000/svg">
</g>
<g xmlns="http://www.w3.org/2000/svg">
</g>
<g xmlns="http://www.w3.org/2000/svg">
</g>
<g xmlns="http://www.w3.org/2000/svg">
</g>
<g xmlns="http://www.w3.org/2000/svg">
</g>
<g xmlns="http://www.w3.org/2000/svg">
</g>
<g xmlns="http://www.w3.org/2000/svg">
</g>
</g></svg>
